<svg xmlns="http://www.w3.org/2000/svg" viewBox="372 95 683 517" fill="currentColor">
  <path d="M 542.500 117.356 C 509.569 130.700, 510 130.498, 510 132.559 C 510 133.694, 511.701 134, 518 134 L 526 134 525.998 288.750 L 525.995 443.500 520.748 446.210 C 517.861 447.701, 511.530 450.733, 506.679 452.947 C 499.009 456.448, 497.899 457.269, 498.179 459.237 L 498.500 461.500 536.750 461.762 L 575 462.024 575 292.012 L 575 122 587.500 122 L 600 122 600 119.435 C 600 117.132, 598.714 116.261, 587.444 110.935 C 580.538 107.671, 574.350 105.045, 573.694 105.100 C 573.037 105.155, 559 110.670, 542.500 117.356 M 769.209 117.758 C 733.955 131.928, 732.072 133.273, 746.761 133.790 L 755 134.081 754.993 169.790 C 754.989 189.431, 754.708 208.444, 754.368 212.042 C 753.785 218.213, 753.601 218.595, 751.125 218.778 C 746.394 219.126, 738.601 221.241, 733 223.696 C 723.756 227.748, 714.540 232.446, 713.765 233.500 C 713.361 234.050, 713.024 219.755, 713.015 201.732 L 713 168.965 683.250 154.367 C 638.774 132.542, 619.079 123, 618.511 123 C 618.230 123, 618 135.390, 618 150.534 L 618 178.067 638.750 188.303 L 659.500 198.539 659.500 222.520 L 659.500 246.500 638.750 256.701 L 618 266.902 618 289.779 L 618 312.656 638.953 322.766 L 659.907 332.875 659.780 359.597 L 659.653 386.320 638.844 396.410 L 618.035 406.500 618.017 434.260 L 618 462.020 665.250 461.760 L 712.500 461.500 713.014 411.500 C 713.297 384, 713.634 362.314, 713.764 363.309 C 713.894 364.304, 714.345 364.905, 714.768 364.644 C 715.190 364.383, 717.328 365.274, 719.518 366.624 C 728.808 372.351, 743.893 378.110, 750.244 378.356 C 753.261 378.472, 753.995 378.889, 754.022 380.500 C 754.041 381.600, 754.321 396.238, 754.645 413.028 L 755.234 443.557 742.367 449.467 C 727.167 456.450, 727 456.560, 727 459.622 L 727 462 827 462 L 927 462 926.966 459.250 C 926.935 456.694, 925.947 456.049, 912.966 450.110 L 899 443.721 899 425.021 L 899 406.322 875.874 396.411 C 863.154 390.960, 852.354 386.350, 851.874 386.167 C 851.393 385.983, 851 390.371, 851 395.917 L 851 406 830 406 L 809 406 809 386.132 L 809 366.264 818.420 357.027 C 824.706 350.862, 829.323 345.246, 832.301 340.145 C 838.413 329.672, 838.421 329.653, 841.035 319.500 C 845.813 300.937, 843.527 278.215, 835.154 261.062 C 832.105 254.815, 819.347 239.924, 813.254 235.500 L 809.122 232.500 809.061 177.285 L 809 122.070 819.238 121.785 C 834.142 121.370, 833.841 119.939, 817.080 111.540 C 809.902 107.943, 803.235 105.040, 802.264 105.090 C 801.294 105.139, 786.419 110.840, 769.209 117.758 M 748.632 221.811 C 742.640 222.531, 727.639 229.149, 720.461 234.241 L 713.048 239.500 713.024 255.743 L 713 271.986 699.750 278.743 L 686.500 285.500 686.500 289.881 L 686.500 294.261 699.750 300.864 L 713 307.466 713 331.912 L 713 356.358 716.728 359.772 C 721.804 364.423, 739.004 372.638, 747.250 374.353 L 754 375.756 754 355.819 C 754 342.615, 753.658 336.093, 752.987 336.508 C 752.430 336.852, 750.561 336.429, 748.834 335.567 C 747.106 334.705, 745.199 333.993, 744.596 333.984 C 743.993 333.975, 742.074 332.738, 740.331 331.234 C 738.588 329.730, 735.558 327.191, 733.599 325.591 C 730.506 323.066, 725.127 315, 726.536 315 C 726.814 315, 726.132 313.218, 725.020 311.040 C 723.722 308.494, 723 305.125, 723 301.605 C 723 295.846, 725.552 281.962, 726.780 281.040 C 727.176 280.743, 727.641 279.852, 727.813 279.060 C 728.154 277.494, 738.703 267, 739.937 267 C 740.353 267, 741.732 266.100, 743 265 C 744.268 263.900, 746.052 263, 746.964 263 C 747.877 263, 749.578 262.110, 750.745 261.023 C 752.863 259.049, 752.868 259.050, 753.297 261.273 C 753.534 262.498, 753.827 257.650, 753.948 250.500 C 754.069 243.350, 754.210 235.700, 754.263 233.500 C 754.463 225.059, 753.997 221.334, 752.750 221.400 C 752.063 221.437, 750.209 221.622, 748.632 221.811 M 809 298.674 L 809 362.168 813.005 358.996 C 815.208 357.251, 818.696 353.730, 820.755 351.171 C 822.815 348.612, 825.539 345.389, 826.809 344.009 C 830.275 340.242, 836.851 325.894, 839.098 317.194 C 842.652 303.441, 841.256 282.333, 835.893 268.728 C 831.710 258.117, 823.041 246.810, 812.211 237.840 L 809 235.180 809 298.674 M 680.629 287.859 L 676.758 289.569 679.426 290.784 C 682.633 292.246, 684.082 292.354, 682 290.977 C 680.729 290.137, 680.882 289.685, 683 288.015 C 686.003 285.648, 685.680 285.627, 680.629 287.859 M 999.500 517.787 C 985.637 522.398, 979.629 538.814, 988.223 548.601 C 992.448 553.413, 997.257 555.670, 1012.854 560.164 C 1028.198 564.585, 1031.471 566.504, 1033.133 572.050 C 1036.286 582.574, 1028.701 589.860, 1014.500 589.951 C 1003.132 590.023, 996.391 586.398, 992.801 578.283 C 990.929 574.050, 990.847 574, 985.828 574 L 980.750 574 981.394 577.250 C 983.048 585.598, 992.034 594.549, 1001.343 597.122 C 1007.471 598.815, 1021.865 598.538, 1027.656 596.614 C 1037.834 593.234, 1043.936 585.271, 1043.978 575.315 C 1044.035 561.840, 1037.636 556.580, 1013.202 550.017 C 997.454 545.788, 995 543.917, 995 536.142 C 995 527.839, 1002.911 523.237, 1015.457 524.244 C 1023.487 524.889, 1028.155 527.624, 1030.897 533.288 C 1032.933 537.496, 1032.940 537.500, 1037.928 537.156 L 1042.921 536.812 1040.994 531.656 C 1038.550 525.119, 1032.501 519.523, 1025.691 517.501 C 1019.042 515.526, 1005.863 515.670, 999.500 517.787 M 381.781 557.250 L 382.062 597.500 407.281 597.189 C 437.112 596.822, 441.206 596.057, 447.610 589.653 C 453.995 583.268, 455.804 573.567, 452.120 565.459 C 450.417 561.709, 445.801 556.874, 442.787 555.683 C 441.939 555.347, 442.616 554.261, 444.770 552.499 C 449.325 548.772, 451 545.014, 451 538.518 C 451 531.477, 449.274 527.326, 444.663 523.277 C 438.394 517.773, 433.643 517, 406.068 517 L 381.500 516.999 381.781 557.250 M 466.021 542.250 C 466.050 577.411, 468.072 585.056, 479.309 592.494 C 493.818 602.096, 520.213 600.787, 531.073 589.927 C 539.644 581.356, 540.952 574.865, 540.980 540.750 L 541 517 530 517 L 519 517 519 544.040 C 519 574.588, 518.459 577.299, 511.803 580.107 C 506.732 582.246, 497.628 581.858, 494.277 579.361 C 487.809 574.540, 487.534 573.166, 487.154 543.750 L 486.808 517 476.404 517 L 466 517 466.021 542.250 M 557 556.833 C 557 578.742, 557.186 596.854, 557.413 597.083 C 557.639 597.312, 562.589 597.359, 568.413 597.186 L 579 596.871 579 556.936 L 579 517 568 517 L 557 517 557 556.833 M 595.523 557.138 L 595.547 597.275 625.523 597.306 L 655.499 597.337 656.182 592.419 C 656.558 589.713, 657.126 585.813, 657.444 583.750 L 658.024 580 637.512 580 L 617 580 617 548.500 L 617 517 606.250 517 L 595.500 517.001 595.523 557.138 M 668 557.253 L 668 597.664 689.750 597.268 C 718.077 596.751, 724.062 595.056, 734.080 584.713 C 748.047 570.292, 746.792 539.729, 731.689 526.505 C 722.441 518.408, 719.108 517.633, 691.750 517.209 L 668 516.841 668 557.253 M 760 557 L 760 597 786.500 597 C 811.066 597, 813.001 596.872, 813.014 595.250 C 813.021 594.288, 813.299 592.487, 813.630 591.250 L 814.233 589 792.117 589 L 770 589 770 553 L 770 517 765 517 L 760 517 760 557 M 826 557.016 L 826 597.031 854.250 596.766 L 882.500 596.500 882.810 592.750 L 883.121 589 859.560 589 L 836 589 836 574 L 836 559 857.500 559 L 879 559 879 555 L 879 551 857.500 551 L 836 551 836 538 L 836 525 858.500 525 L 881 525 881 521 L 881 517 853.500 517 L 826 517 826 557.016 M 898 556.954 L 898 597 902.750 597 L 907.500 597.001 907.224 562.277 L 906.948 527.553 929.938 562.277 L 952.928 597 959.278 597 L 965.627 597 965.780 557 L 965.933 517 960.967 517 L 956 517 956 550.563 L 956 584.126 933.707 550.813 L 911.415 517.500 904.707 517.204 L 898 516.909 898 556.954 M 402 540 L 402 548 413.050 548 C 425.969 548, 429.449 546.784, 430.523 541.898 C 431.341 538.171, 428.707 533.936, 424.910 532.873 C 423.584 532.503, 417.887 532.155, 412.250 532.100 L 402 532 402 540 M 689 557 L 689 580 698.032 580 C 703.356 580, 708.392 579.445, 710.298 578.649 C 725.164 572.437, 726.130 543.082, 711.698 536.096 C 708.266 534.434, 705.465 534, 698.184 534 L 689 534 689 557 M 402.212 572.250 L 402.500 581.500 412.570 581.783 C 425.720 582.153, 429.912 580.844, 431.840 575.768 C 435.218 566.875, 429.332 563, 412.442 563 L 401.925 563 402.212 572.250" fill-rule="evenodd"/>
</svg>