<svg xmlns="http://www.w3.org/2000/svg" viewBox="372 95 683 565" fill="currentColor">
  <path d="M 542.500 117.356 C 509.569 130.700, 510 130.498, 510 132.559 C 510 133.694, 511.701 134, 518 134 L 526 134 525.998 288.750 L 525.995 443.500 520.748 446.210 C 517.861 447.701, 511.530 450.733, 506.679 452.947 C 499.009 456.448, 497.899 457.269, 498.179 459.237 L 498.500 461.500 536.750 461.762 L 575 462.024 575 292.012 L 575 122 587.500 122 L 600 122 600 119.435 C 600 117.132, 598.714 116.261, 587.444 110.935 C 580.538 107.671, 574.350 105.045, 573.694 105.100 C 573.037 105.155, 559 110.670, 542.500 117.356 M 769.209 117.758 C 733.955 131.928, 732.072 133.273, 746.761 133.790 L 755 134.081 754.993 169.790 C 754.989 189.431, 754.708 208.444, 754.368 212.042 C 753.785 218.213, 753.601 218.595, 751.125 218.778 C 746.394 219.126, 738.601 221.241, 733 223.696 C 723.756 227.748, 714.540 232.446, 713.765 233.500 C 713.361 234.050, 713.024 219.755, 713.015 201.732 L 713 168.965 683.250 154.367 C 638.774 132.542, 619.079 123, 618.511 123 C 618.230 123, 618 135.390, 618 150.534 L 618 178.067 638.750 188.303 L 659.500 198.539 659.500 222.520 L 659.500 246.500 638.750 256.701 L 618 266.902 618 289.779 L 618 312.656 638.953 322.766 L 659.907 332.875 659.780 359.597 L 659.653 386.320 638.844 396.410 L 618.035 406.500 618.017 434.260 L 618 462.020 665.250 461.760 L 712.500 461.500 713.014 411.500 C 713.297 384, 713.634 362.314, 713.764 363.309 C 713.894 364.304, 714.345 364.905, 714.768 364.644 C 715.190 364.383, 717.328 365.274, 719.518 366.624 C 728.808 372.351, 743.893 378.110, 750.244 378.356 C 753.261 378.472, 753.995 378.889, 754.022 380.500 C 754.041 381.600, 754.321 396.238, 754.645 413.028 L 755.234 443.557 742.367 449.467 C 727.167 456.450, 727 456.560, 727 459.622 L 727 462 827 462 L 927 462 926.966 459.250 C 926.935 456.694, 925.947 456.049, 912.966 450.110 L 899 443.721 899 425.021 L 899 406.322 875.874 396.411 C 863.154 390.960, 852.354 386.350, 851.874 386.167 C 851.393 385.983, 851 390.371, 851 395.917 L 851 406 830 406 L 809 406 809 386.132 L 809 366.264 818.420 357.027 C 824.706 350.862, 829.323 345.246, 832.301 340.145 C 838.413 329.672, 838.421 329.653, 841.035 319.500 C 845.813 300.937, 843.527 278.215, 835.154 261.062 C 832.105 254.815, 819.347 239.924, 813.254 235.500 L 809.122 232.500 809.061 177.285 L 809 122.070 819.238 121.785 C 834.142 121.370, 833.841 119.939, 817.080 111.540 C 809.902 107.943, 803.235 105.040, 802.264 105.090 C 801.294 105.139, 786.419 110.840, 769.209 117.758 M 748.632 221.811 C 742.640 222.531, 727.639 229.149, 720.461 234.241 L 713.048 239.500 713.024 255.743 L 713 271.986 699.750 278.743 L 686.500 285.500 686.500 289.881 L 686.500 294.261 699.750 300.864 L 713 307.466 713 331.912 L 713 356.358 716.728 359.772 C 721.804 364.423, 739.004 372.638, 747.250 374.353 L 754 375.756 754 355.819 C 754 342.615, 753.658 336.093, 752.987 336.508 C 752.430 336.852, 750.561 336.429, 748.834 335.567 C 747.106 334.705, 745.199 333.993, 744.596 333.984 C 743.993 333.975, 742.074 332.738, 740.331 331.234 C 738.588 329.730, 735.558 327.191, 733.599 325.591 C 730.506 323.066, 725.127 315, 726.536 315 C 726.814 315, 726.132 313.218, 725.020 311.040 C 723.722 308.494, 723 305.125, 723 301.605 C 723 295.846, 725.552 281.962, 726.780 281.040 C 727.176 280.743, 727.641 279.852, 727.813 279.060 C 728.154 277.494, 738.703 267, 739.937 267 C 740.353 267, 741.732 266.100, 743 265 C 744.268 263.900, 746.052 263, 746.964 263 C 747.877 263, 749.578 262.110, 750.745 261.023 C 752.863 259.049, 752.868 259.050, 753.297 261.273 C 753.534 262.498, 753.827 257.650, 753.948 250.500 C 754.069 243.350, 754.210 235.700, 754.263 233.500 C 754.463 225.059, 753.997 221.334, 752.750 221.400 C 752.063 221.437, 750.209 221.622, 748.632 221.811 M 809 298.674 L 809 362.168 813.005 358.996 C 815.208 357.251, 818.696 353.730, 820.755 351.171 C 822.815 348.612, 825.539 345.389, 826.809 344.009 C 830.275 340.242, 836.851 325.894, 839.098 317.194 C 842.652 303.441, 841.256 282.333, 835.893 268.728 C 831.710 258.117, 823.041 246.810, 812.211 237.840 L 809 235.180 809 298.674 M 680.629 287.859 L 676.758 289.569 679.426 290.784 C 682.633 292.246, 684.082 292.354, 682 290.977 C 680.729 290.137, 680.882 289.685, 683 288.015 C 686.003 285.648, 685.680 285.627, 680.629 287.859 M 999.500 517.787 C 985.637 522.398, 979.629 538.814, 988.223 548.601 C 992.448 553.413, 997.257 555.670, 1012.854 560.164 C 1028.198 564.585, 1031.471 566.504, 1033.133 572.050 C 1036.286 582.574, 1028.701 589.860, 1014.500 589.951 C 1003.132 590.023, 996.391 586.398, 992.801 578.283 C 990.929 574.050, 990.847 574, 985.828 574 L 980.750 574 981.394 577.250 C 983.048 585.598, 992.034 594.549, 1001.343 597.122 C 1007.471 598.815, 1021.865 598.538, 1027.656 596.614 C 1037.834 593.234, 1043.936 585.271, 1043.978 575.315 C 1044.035 561.840, 1037.636 556.580, 1013.202 550.017 C 997.454 545.788, 995 543.917, 995 536.142 C 995 527.839, 1002.911 523.237, 1015.457 524.244 C 1023.487 524.889, 1028.155 527.624, 1030.897 533.288 C 1032.933 537.496, 1032.940 537.500, 1037.928 537.156 L 1042.921 536.812 1040.994 531.656 C 1038.550 525.119, 1032.501 519.523, 1025.691 517.501 C 1019.042 515.526, 1005.863 515.670, 999.500 517.787 M 381.781 557.250 L 382.062 597.500 407.281 597.189 C 437.112 596.822, 441.206 596.057, 447.610 589.653 C 453.995 583.268, 455.804 573.567, 452.120 565.459 C 450.417 561.709, 445.801 556.874, 442.787 555.683 C 441.939 555.347, 442.616 554.261, 444.770 552.499 C 449.325 548.772, 451 545.014, 451 538.518 C 451 531.477, 449.274 527.326, 444.663 523.277 C 438.394 517.773, 433.643 517, 406.068 517 L 381.500 516.999 381.781 557.250 M 466.021 542.250 C 466.050 577.411, 468.072 585.056, 479.309 592.494 C 493.818 602.096, 520.213 600.787, 531.073 589.927 C 539.644 581.356, 540.952 574.865, 540.980 540.750 L 541 517 530 517 L 519 517 519 544.040 C 519 574.588, 518.459 577.299, 511.803 580.107 C 506.732 582.246, 497.628 581.858, 494.277 579.361 C 487.809 574.540, 487.534 573.166, 487.154 543.750 L 486.808 517 476.404 517 L 466 517 466.021 542.250 M 557 556.833 C 557 578.742, 557.186 596.854, 557.413 597.083 C 557.639 597.312, 562.589 597.359, 568.413 597.186 L 579 596.871 579 556.936 L 579 517 568 517 L 557 517 557 556.833 M 595.523 557.138 L 595.547 597.275 625.523 597.306 L 655.499 597.337 656.182 592.419 C 656.558 589.713, 657.126 585.813, 657.444 583.750 L 658.024 580 637.512 580 L 617 580 617 548.500 L 617 517 606.250 517 L 595.500 517.001 595.523 557.138 M 668 557.253 L 668 597.664 689.750 597.268 C 718.077 596.751, 724.062 595.056, 734.080 584.713 C 748.047 570.292, 746.792 539.729, 731.689 526.505 C 722.441 518.408, 719.108 517.633, 691.750 517.209 L 668 516.841 668 557.253 M 760 557 L 760 597 786.500 597 C 811.066 597, 813.001 596.872, 813.014 595.250 C 813.021 594.288, 813.299 592.487, 813.630 591.250 L 814.233 589 792.117 589 L 770 589 770 553 L 770 517 765 517 L 760 517 760 557 M 826 557.016 L 826 597.031 854.250 596.766 L 882.500 596.500 882.810 592.750 L 883.121 589 859.560 589 L 836 589 836 574 L 836 559 857.500 559 L 879 559 879 555 L 879 551 857.500 551 L 836 551 836 538 L 836 525 858.500 525 L 881 525 881 521 L 881 517 853.500 517 L 826 517 826 557.016 M 898 556.954 L 898 597 902.750 597 L 907.500 597.001 907.224 562.277 L 906.948 527.553 929.938 562.277 L 952.928 597 959.278 597 L 965.627 597 965.780 557 L 965.933 517 960.967 517 L 956 517 956 550.563 L 956 584.126 933.707 550.813 L 911.415 517.500 904.707 517.204 L 898 516.909 898 556.954 M 402 540 L 402 548 413.050 548 C 425.969 548, 429.449 546.784, 430.523 541.898 C 431.341 538.171, 428.707 533.936, 424.910 532.873 C 423.584 532.503, 417.887 532.155, 412.250 532.100 L 402 532 402 540 M 689 557 L 689 580 698.032 580 C 703.356 580, 708.392 579.445, 710.298 578.649 C 725.164 572.437, 726.130 543.082, 711.698 536.096 C 708.266 534.434, 705.465 534, 698.184 534 L 689 534 689 557 M 402.212 572.250 L 402.500 581.500 412.570 581.783 C 425.720 582.153, 429.912 580.844, 431.840 575.768 C 435.218 566.875, 429.332 563, 412.442 563 L 401.925 563 402.212 572.250 M 479.263 618.126 C 474.755 619.414, 473 623.301, 473 632 C 473 640.609, 474.709 644.422, 479.233 645.904 C 486.536 648.298, 492.021 643.791, 492.768 634.784 C 493.799 622.356, 488.280 615.550, 479.263 618.126 M 528.270 617.715 C 525.421 618.250, 522 622.571, 522 625.635 C 522 628.590, 525.079 631.759, 528.725 632.556 C 533.983 633.705, 536.935 635.220, 537.522 637.070 C 539.711 643.966, 528.069 645.979, 525.070 639.222 C 524.283 637.450, 523.045 636, 522.320 636 C 520.056 636, 520.871 639.825, 523.844 643.151 C 526.270 645.866, 527.372 646.333, 531.352 646.333 C 543.570 646.333, 544.699 632.255, 532.636 630.326 C 527.844 629.560, 524.941 626.941, 525.694 624.063 C 526.797 619.843, 534.754 619.977, 536.795 624.250 C 538.064 626.906, 541 628.093, 541 625.950 C 541 620.706, 534.555 616.536, 528.270 617.715 M 697.255 618.191 C 692.251 619.523, 690.556 623.024, 690.526 632.092 C 690.496 640.939, 692.423 644.795, 697.568 646.184 C 701.360 647.207, 706.646 645.470, 708.542 642.577 C 710.704 639.276, 710.755 626.361, 708.622 622.236 C 707.702 620.456, 706.845 619, 706.718 619 C 706.591 619, 705.140 618.624, 703.493 618.164 C 701.847 617.704, 699.040 617.717, 697.255 618.191 M 939.205 618.227 C 934.649 619.407, 932.616 623.806, 932.609 632.500 C 932.601 640.786, 933.927 643.654, 938.684 645.641 C 943.142 647.504, 947.363 646.626, 949.988 643.288 C 952.377 640.251, 952.676 636, 950.500 636 C 949.675 636, 949 636.695, 949 637.545 C 949 639.568, 944.537 644, 942.500 644 C 938.652 644, 935.999 639.416, 936.015 632.795 C 936.035 624.015, 937.486 621.500, 942.530 621.500 C 946.027 621.500, 946.679 621.884, 948 624.728 C 949.759 628.513, 952 629.021, 952 625.635 C 952 619.949, 945.989 616.469, 939.205 618.227 M 451.570 620.340 C 447.075 624.834, 447.044 638.614, 451.516 643.813 C 456.504 649.613, 468 645.868, 468 638.444 C 468 635.223, 465.404 635.256, 464.593 638.487 C 463.192 644.066, 455.739 645.117, 453.061 640.114 C 451.388 636.988, 451.741 625.815, 453.595 623.168 C 456.132 619.546, 462.038 620.450, 463.930 624.750 C 464.717 626.538, 465.955 628, 466.680 628 C 468.701 628, 468.250 623.587, 465.927 620.635 C 463.058 616.987, 455.086 616.823, 451.570 620.340 M 497 631.937 C 497 645.260, 497.104 646, 498.969 646 C 500.803 646, 500.958 645.176, 501.219 633.976 L 501.500 621.952 505.913 633.976 C 510.135 645.479, 510.449 646, 513.163 646 L 516 646 516 632 C 516 620.349, 515.753 618, 514.530 618 C 513.328 618, 513.009 620.325, 512.780 630.750 L 512.500 643.500 508 631 C 503.573 618.703, 503.447 618.495, 500.250 618.187 L 497 617.873 497 631.937 M 545 619.500 C 545 620.583, 546.111 621, 549 621 L 553 621 553 633.500 C 553 645.333, 553.107 646, 555 646 C 556.893 646, 557 645.333, 557 633.500 L 557 621 561 621 C 563.889 621, 565 620.583, 565 619.500 C 565 618.267, 563.222 618, 555 618 C 546.778 618, 545 618.267, 545 619.500 M 570.391 631.736 C 570.488 643.973, 570.691 645.510, 572.250 645.810 C 573.762 646.101, 574 645.319, 574 640.073 L 574 634 578.300 634 C 583.802 634, 585 635.288, 585 641.200 C 585 644.800, 585.375 646, 586.500 646 C 588.268 646, 588.715 634.560, 586.989 633.493 C 586.350 633.098, 586.533 632.077, 587.489 630.712 C 589.746 627.490, 589.357 623.266, 586.545 620.455 C 584.413 618.322, 583.184 618, 577.186 618 L 570.282 618 570.391 631.736 M 594 629.444 C 594 639.983, 594.184 641.102, 596.327 643.594 C 599.778 647.606, 607.176 647.658, 610.586 643.694 C 612.834 641.082, 613 640.101, 613 629.444 C 613 619.938, 612.746 618, 611.500 618 C 610.261 618, 610 619.838, 610 628.545 C 610 638.409, 609.841 639.250, 607.545 641.545 C 606.195 642.895, 604.375 644, 603.500 644 C 602.625 644, 600.805 642.895, 599.455 641.545 C 597.159 639.250, 597 638.409, 597 628.545 C 597 619.838, 596.739 618, 595.500 618 C 594.254 618, 594 619.938, 594 629.444 M 621.725 619.752 C 615.592 626.529, 617.213 642.462, 624.383 645.867 C 630.122 648.593, 638 643.782, 638 637.550 C 638 634.838, 635.236 635.883, 634.148 639.006 C 632.860 642.701, 628.856 644.520, 625.685 642.850 C 622.364 641.103, 622.032 640.111, 622.015 631.905 C 622.003 625.804, 622.360 623.984, 623.829 622.655 C 627.501 619.332, 634 621.515, 634 626.071 C 634 627.333, 634.691 628, 636 628 C 637.100 628, 638 627.617, 638 627.149 C 638 624.759, 635.567 619.839, 633.961 618.979 C 630.878 617.329, 623.495 617.795, 621.725 619.752 M 642 619.500 C 642 620.583, 643.111 621, 646 621 L 650 621 650 633.500 C 650 643.828, 650.255 646, 651.469 646 C 652.666 646, 652.990 643.731, 653.219 633.750 L 653.500 621.500 657.750 621.193 C 660.644 620.983, 662 620.425, 662 619.443 C 662 618.282, 660.045 618, 652 618 C 643.778 618, 642 618.267, 642 619.500 M 667 619.500 C 667 620.548, 668.056 621, 670.500 621 L 674 621 674 632 L 674 643 670.500 643 C 668.056 643, 667 643.452, 667 644.500 C 667 645.722, 668.667 646, 676 646 C 683.333 646, 685 645.722, 685 644.500 C 685 643.452, 683.944 643, 681.500 643 L 678 643 678 632 L 678 621 681.500 621 C 683.944 621, 685 620.548, 685 619.500 C 685 618.278, 683.333 618, 676 618 C 668.667 618, 667 618.278, 667 619.500 M 715 632 C 715 645.333, 715.095 646, 717 646 C 718.889 646, 719.002 645.319, 719.042 633.750 L 719.083 621.500 723.642 633.750 C 728.035 645.552, 728.308 646, 731.101 646 L 734 646 734 632 C 734 620.349, 733.753 618, 732.530 618 C 731.328 618, 731.009 620.325, 730.780 630.750 L 730.500 643.500 726.010 630.750 L 721.520 618 718.260 618 L 715 618 715 632 M 764 632 L 764 646 773 646 C 780.333 646, 782 645.722, 782 644.500 C 782 643.310, 780.556 643, 775 643 L 768 643 768 630.500 C 768 618.667, 767.893 618, 766 618 C 764.095 618, 764 618.667, 764 632 M 790.521 620.388 C 785.825 625.084, 785.780 639.234, 790.446 643.900 C 794.084 647.538, 800.003 647.451, 803.750 643.705 C 806.231 641.225, 806.534 640.143, 806.845 632.667 C 807.169 624.887, 807.025 624.183, 804.506 621.189 C 800.986 617.007, 794.286 616.623, 790.521 620.388 M 814.455 620.455 C 812.216 622.693, 812 623.692, 812 631.820 C 812 639.234, 812.338 641.160, 814.012 643.288 C 817.357 647.540, 824.492 647.708, 827.235 643.600 C 827.688 642.921, 827.975 643.170, 827.985 644.250 C 827.993 645.212, 828.675 646, 829.500 646 C 830.679 646, 831 644.611, 831 639.500 L 831 633 825.500 633 C 821.278 633, 820 633.348, 820 634.500 C 820 635.583, 821.111 636, 824 636 C 828.401 636, 828.987 637.146, 826.443 640.777 C 825.356 642.330, 823.866 643, 821.500 643 C 816.675 643, 815 640.166, 815 632 C 815 623.478, 816.717 620.768, 821.845 621.195 C 824.852 621.446, 825.766 622.072, 827 624.728 C 828.798 628.597, 831 628.997, 831 625.455 C 831 621.249, 826.859 618, 821.500 618 C 817.959 618, 816.348 618.561, 814.455 620.455 M 837 619.500 C 837 620.548, 838.056 621, 840.500 621 L 844 621 844 632 L 844 643 840.500 643 C 838.056 643, 837 643.452, 837 644.500 C 837 645.722, 838.667 646, 846 646 C 853.333 646, 855 645.722, 855 644.500 C 855 643.417, 853.889 643, 851 643 L 847 643 847 632 L 847 621 850.500 621 C 852.944 621, 854 620.548, 854 619.500 C 854 618.284, 852.389 618, 845.500 618 C 838.611 618, 837 618.284, 837 619.500 M 863 620 C 858.064 624.936, 861.739 632.063, 869.894 633.367 C 876.109 634.361, 878.459 637.622, 875.690 641.409 C 872.810 645.348, 863 642.593, 863 637.845 C 863 636.830, 862.325 636, 861.500 636 C 859.742 636, 859.521 639.237, 861.080 642.150 C 865.126 649.710, 880 646.825, 880 638.481 C 880 634.486, 877.764 632.437, 870.994 630.229 C 864.997 628.274, 862.897 625.979, 864.606 623.250 C 866.917 619.560, 876 620.983, 876 625.035 C 876 626.355, 876.679 627, 878.067 627 C 880.593 627, 879.947 623.786, 876.711 620.250 C 873.924 617.205, 865.940 617.060, 863 620 M 884 619.500 C 884 620.583, 885.111 621, 888 621 L 892 621 892 633.500 C 892 645.333, 892.107 646, 894 646 C 895.893 646, 896 645.333, 896 633.500 L 896 621 900 621 C 902.889 621, 904 620.583, 904 619.500 C 904 618.267, 902.222 618, 894 618 C 885.778 618, 884 618.267, 884 619.500 M 909 619.500 C 909 620.548, 910.056 621, 912.500 621 L 916 621 916 632 L 916 643 912.500 643 C 910.056 643, 909 643.452, 909 644.500 C 909 645.722, 910.667 646, 918 646 C 925.333 646, 927 645.722, 927 644.500 C 927 643.452, 925.944 643, 923.500 643 L 920 643 920 632 L 920 621 923.500 621 C 925.944 621, 927 620.548, 927 619.500 C 927 618.278, 925.333 618, 918 618 C 910.667 618, 909 618.278, 909 619.500 M 959.455 620.455 C 958.105 621.805, 957 623.864, 957 625.031 C 957 628.321, 961.937 632.574, 966.626 633.324 C 971.357 634.081, 973.293 635.911, 972.827 639.186 C 972.006 644.951, 961.490 644.699, 960.327 638.885 C 959.924 636.869, 959.153 636, 957.767 636 C 955.137 636, 956.111 640.471, 959.486 643.902 C 964.217 648.710, 975.102 646.428, 976.638 640.307 C 977.752 635.867, 975.196 632.758, 968.576 630.500 C 962.026 628.266, 959.870 626.023, 961.606 623.250 C 963.978 619.462, 973 621.366, 973 625.655 C 973 626.395, 973.930 627, 975.067 627 C 977.593 627, 976.947 623.786, 973.711 620.250 C 970.689 616.948, 962.849 617.061, 959.455 620.455 M 477.885 622.639 C 475.595 625.398, 475.431 638.104, 477.652 640.682 C 480.667 644.181, 483.602 644.489, 486.483 641.608 C 488.680 639.410, 489 638.224, 489 632.268 C 489 623.858, 487.368 621, 482.566 621 C 480.709 621, 478.645 621.722, 477.885 622.639 M 574 626 L 574 631 579.021 631 C 583.385 631, 584.190 630.678, 585.163 628.541 C 587.060 624.377, 584.066 621, 578.477 621 L 574 621 574 626 M 695.595 623.168 C 694.513 624.712, 694 627.641, 694 632.268 C 694 638.179, 694.328 639.419, 696.455 641.545 C 697.805 642.895, 699.625 644, 700.500 644 C 704.348 644, 707.001 639.416, 706.985 632.795 C 706.966 624.371, 705.486 621.587, 700.822 621.195 C 697.970 620.956, 696.847 621.380, 695.595 623.168 M 792.655 622.829 C 790.954 624.709, 790.252 636.886, 791.636 640.495 C 792.542 642.856, 796.509 644.137, 799.450 643.019 C 804.014 641.284, 805.367 626.510, 801.331 622.474 C 799.294 620.437, 794.647 620.627, 792.655 622.829" fill-rule="evenodd"/>
</svg>