<svg xmlns="http://www.w3.org/2000/svg" viewBox="488 95 449 377" fill="currentColor">
  <path d="M 542.500 117.356 C 509.569 130.700, 510 130.498, 510 132.559 C 510 133.694, 511.701 134, 518 134 L 526 134 525.998 288.750 L 525.995 443.500 520.748 446.210 C 517.861 447.701, 511.530 450.733, 506.679 452.947 C 499.009 456.448, 497.899 457.269, 498.179 459.237 L 498.500 461.500 536.750 461.762 L 575 462.024 575 292.012 L 575 122 587.500 122 L 600 122 600 119.435 C 600 117.132, 598.714 116.261, 587.444 110.935 C 580.538 107.671, 574.350 105.045, 573.694 105.100 C 573.037 105.155, 559 110.670, 542.500 117.356 M 769.209 117.758 C 733.955 131.928, 732.072 133.273, 746.761 133.790 L 755 134.081 754.993 169.790 C 754.989 189.431, 754.708 208.444, 754.368 212.042 C 753.785 218.213, 753.601 218.595, 751.125 218.778 C 746.394 219.126, 738.601 221.241, 733 223.696 C 723.756 227.748, 714.540 232.446, 713.765 233.500 C 713.361 234.050, 713.024 219.755, 713.015 201.732 L 713 168.965 683.250 154.367 C 638.774 132.542, 619.079 123, 618.511 123 C 618.230 123, 618 135.390, 618 150.534 L 618 178.067 638.750 188.303 L 659.500 198.539 659.500 222.520 L 659.500 246.500 638.750 256.701 L 618 266.902 618 289.779 L 618 312.656 638.953 322.766 L 659.907 332.875 659.780 359.597 L 659.653 386.320 638.844 396.410 L 618.035 406.500 618.017 434.260 L 618 462.020 665.250 461.760 L 712.500 461.500 713.014 411.500 C 713.297 384, 713.634 362.314, 713.764 363.309 C 713.894 364.304, 714.345 364.905, 714.768 364.644 C 715.190 364.383, 717.328 365.274, 719.518 366.624 C 728.808 372.351, 743.893 378.110, 750.244 378.356 C 753.261 378.472, 753.995 378.889, 754.022 380.500 C 754.041 381.600, 754.321 396.238, 754.645 413.028 L 755.234 443.557 742.367 449.467 C 727.167 456.450, 727 456.560, 727 459.622 L 727 462 827 462 L 927 462 926.966 459.250 C 926.935 456.694, 925.947 456.049, 912.966 450.110 L 899 443.721 899 425.021 L 899 406.322 875.874 396.411 C 863.154 390.960, 852.354 386.350, 851.874 386.167 C 851.393 385.983, 851 390.371, 851 395.917 L 851 406 830 406 L 809 406 809 386.132 L 809 366.264 818.420 357.027 C 824.706 350.862, 829.323 345.246, 832.301 340.145 C 838.413 329.672, 838.421 329.653, 841.035 319.500 C 845.813 300.937, 843.527 278.215, 835.154 261.062 C 832.105 254.815, 819.347 239.924, 813.254 235.500 L 809.122 232.500 809.061 177.285 L 809 122.070 819.238 121.785 C 834.142 121.370, 833.841 119.939, 817.080 111.540 C 809.902 107.943, 803.235 105.040, 802.264 105.090 C 801.294 105.139, 786.419 110.840, 769.209 117.758 M 748.632 221.811 C 742.640 222.531, 727.639 229.149, 720.461 234.241 L 713.048 239.500 713.024 255.743 L 713 271.986 699.750 278.743 L 686.500 285.500 686.500 289.881 L 686.500 294.261 699.750 300.864 L 713 307.466 713 331.912 L 713 356.358 716.728 359.772 C 721.804 364.423, 739.004 372.638, 747.250 374.353 L 754 375.756 754 355.819 C 754 342.615, 753.658 336.093, 752.987 336.508 C 752.430 336.852, 750.561 336.429, 748.834 335.567 C 747.106 334.705, 745.199 333.993, 744.596 333.984 C 743.993 333.975, 742.074 332.738, 740.331 331.234 C 738.588 329.730, 735.558 327.191, 733.599 325.591 C 730.506 323.066, 725.127 315, 726.536 315 C 726.814 315, 726.132 313.218, 725.020 311.040 C 723.722 308.494, 723 305.125, 723 301.605 C 723 295.846, 725.552 281.962, 726.780 281.040 C 727.176 280.743, 727.641 279.852, 727.813 279.060 C 728.154 277.494, 738.703 267, 739.937 267 C 740.353 267, 741.732 266.100, 743 265 C 744.268 263.900, 746.052 263, 746.964 263 C 747.877 263, 749.578 262.110, 750.745 261.023 C 752.863 259.049, 752.868 259.050, 753.297 261.273 C 753.534 262.498, 753.827 257.650, 753.948 250.500 C 754.069 243.350, 754.210 235.700, 754.263 233.500 C 754.463 225.059, 753.997 221.334, 752.750 221.400 C 752.063 221.437, 750.209 221.622, 748.632 221.811 M 809 298.674 L 809 362.168 813.005 358.996 C 815.208 357.251, 818.696 353.730, 820.755 351.171 C 822.815 348.612, 825.539 345.389, 826.809 344.009 C 830.275 340.242, 836.851 325.894, 839.098 317.194 C 842.652 303.441, 841.256 282.333, 835.893 268.728 C 831.710 258.117, 823.041 246.810, 812.211 237.840 L 809 235.180 809 298.674 M 680.629 287.859 L 676.758 289.569 679.426 290.784 C 682.633 292.246, 684.082 292.354, 682 290.977 C 680.729 290.137, 680.882 289.685, 683 288.015 C 686.003 285.648, 685.680 285.627, 680.629 287.859" fill-rule="evenodd"/>
</svg>